<svg xmlns="http://www.w3.org/2000/svg" viewBox="0 0 600 600" class="lg-icon">
                <path class="s-ht16 adu4 ad1" d="M173 216.867l-25.7 14.837zM513.78 231.704l26.759-15.45-26.76 15.45zM513.78 337.497l26.51-15.305-26.51 15.305zM513.78 372.761l5.952-3.436-5.952 3.436zM448.51 269.388L422.16 284.6zM386.78 405.23l-25.7-14.836zM177.84 390.394l27.85 16.079-27.85-16.08zM241.787 427.313l27.672 15.977h.001zM269.46 443.29zM422.16 108.278l30.54-17.632-30.54 17.632zM90.41 163.594l26.35 15.213zM238.92 390.394l26.62 15.368-26.62-15.369zM151.49 269.388l26.35 15.213zM422.16 390.393l-25.487 14.715 25.487-14.714 25.699 14.837-25.699-14.837zM269.46 337.497l-26.35-15.213 26.35 15.213zM238.92 284.6l26.35 15.213-26.35-15.213zM483.24 390.393l-25.7-14.837zM55.68 284.6l26.51 15.306zM365.27 458.503l26.35-15.213zM208.38 196.44l-25.897 14.951zM334.461 405.762l26.62-15.368h-.001zM86.22 266.968l30.54-17.632zM177.84 108.279l30.54-17.633-30.54 17.632-30.54-17.632 30.54 17.633zM483.24 390.393l26.619-15.368zM208.38 125.91l-26.35-15.212zM116.76 390.394l-26.759-15.45zM147.3 266.968l30.54-17.632-30.54 17.632-30.54-17.632 30.54 17.632-30.54 17.632 30.54-17.632zM55.68 178.807l24.87 14.358zM120.681 352.865l26.62-15.368h-.001zM330.54 231.704zM452.7 125.91l27.673-15.976L452.7 125.91zM479.319 352.865L452.7 337.497h-.001zM177.84 143.543l-15.27 8.816zM437.43 152.359l-15.27-8.816zM177.84 319.865l-15.27-8.816zM208.38 231.704L235 247.072zM120.681 216.336l26.619 15.368zM238.92 214.072l-30.54-17.632zM269.461 231.704zM330.54 443.29l26.35-15.213-26.35 15.213zM452.7 196.44l30.54 17.632 21.724-12.543-21.724 12.542zM483.24 284.6l26.35-15.212-26.35 15.212zM334.73 299.813l26.35-15.212zM391.62 337.497l25.346-14.633-25.346 14.633zM116.76 214.072l30.54-17.633-30.54 17.632-21.15-12.211 21.15 12.212zM208.38 161.175l-15.27-8.816 15.27 8.816zM386.426 164.174l-25.346 14.633zM330.54 372.762l-12.908-7.453zM483.24 178.807l26.51-15.305-26.51 15.305zM269.46 196.44l-30.54 17.631zM452.7 143.543V125.91v17.632zM330.54 231.704zM365.001 247.072l26.62-15.368h-.002zM59.87 322.284l26.35 15.213zM147.3 125.91l-24.182-13.96 24.182 13.96zM86.22 231.703l19.157-11.06zM59.601 216.336l26.619 15.368zM90.25 269.295l26.51 15.306zM513.78 266.968l-30.54-17.632zM269.46 478.554l-6.707-3.872 6.707 3.873zM479.319 216.336l-26.62 15.367.001.001zM422.16 249.336l30.54 17.632 28.457-16.43-28.457 16.43zM208.38 337.497l-25.346-14.633zM406.89 152.359l-15.27 8.816zM269.46 231.704zM269.46 372.761l12.908-7.452zM177.84 178.808l-26.619 15.368zM517.97 299.813l26.35-15.212zM269.46 161.175L300 143.543l30.54 17.632L300 143.543l-30.54 17.632zM519.661 193.044l24.659-14.237zM330.54 337.497l26.35-15.213-26.35 15.213zM213.22 405.23l25.7-14.836zM422.16 178.807l26.62 15.369zM330.54 478.554l8.333-4.81zM427.001 352.334l25.699-14.837zM208.38 443.29l27.673 15.977zM391.62 196.44l25.897 14.951zM361.08 214.071l-30.54-17.632zM238.92 178.807l18.69-10.79-18.69 10.79-24.182-13.962zM416.966 111.277L391.62 125.91zM361.08 214.072l30.54-17.632-30.54 17.631zM452.7 231.704L427 216.867z"></path>
                <path class="ad1 adu1 s-ht10" d="M513.78 302.233L483.24 284.6v17.632z"></path>
                <path class="ad4 adu2 s-ht10" d="M483.24 284.6h.001v.001h-.001zM483.24 284.601l30.54 17.632-30.54-17.632zM483.24 214.072h30.54V196.44l-8.816 5.09zM513.78 231.704v17.632h30.54l-30.54-17.632zM513.78 231.704zM513.78 231.704l30.54 17.632-30.54-17.632zM513.78 249.336h-30.54l30.54 17.632zM483.24 249.336zM513.78 319.865v-17.632l-30.54 17.632zM513.78 302.233zM513.78 302.233l-30.54 17.632 30.54-17.632zM513.78 302.233zM513.78 337.497v17.632h30.54l-30.54-17.632zM513.78 337.497zM544.32 355.13z"></path>
                <path class="ad3 adu3 s-ht10" d="M544.32 355.13v-.001l-30.54-17.632zM513.78 372.761V355.13h-30.54zM422.16 143.543l30.54-17.633-18.69-10.79-11.85-6.841zM391.62 108.279V90.646l-30.54 17.633zM452.7 161.175h30.54v-17.632l-30.54 17.632zM483.24 178.808v-.001zM513.78 196.44l-30.54-17.632v17.631zM483.24 178.808l30.54 17.631-30.54-17.632zM519.732 369.325l-5.952 3.436h30.54V355.13zM544.32 355.129zM544.32 355.13zM544.32 355.13v-.001z"></path>
                <path class="ad5 adu4 s-ht10" d="M544.32 355.13l-24.588 14.195 24.588-14.196zM544.32 355.13zM452.7 425.658v-17.632l-30.54 17.632zM452.7 372.762v35.264l30.54-17.633-25.7-14.837zM452.7 408.026zM483.24 390.393l26.619-15.368 3.92-2.264h-30.54zM513.78 372.762l-3.921 2.263zM513.78 372.762zM483.24 390.393zM483.24 408.026h30.54l-30.54-17.632zM483.24 390.394l30.54 17.632zM513.78 408.026zM391.62 408.026h30.54v-17.632l-25.487 14.714zM422.16 460.922zM391.62 443.29l10.18 5.877 20.36 11.755v-35.264zM422.16 425.658zM361.08 460.922h30.54V443.29l-26.35 15.213zM361.08 460.922l4.19-2.419-4.19 2.419z"></path>
                <path class="ad2 adu4 s-ht10" d="M330.54 443.29v17.632h30.54zM330.54 443.29zM283.663 486.754l-11.336-6.544L300 496.187zM269.46 513.82v-.001zM116.76 284.601l-30.54 17.632h30.54zM116.76 284.6v.001z"></path>
                <path class="s-ht10 adu3" d="M116.76 284.6l-30.54 17.632 30.54-17.63zM95.61 201.86l-9.39-5.42v17.632h30.54zM86.22 231.704l-30.54 17.632h30.54zM86.22 231.704zM86.22 231.704l-30.54 17.632zM116.76 249.336H86.22v17.632l30.54-17.632zM116.76 249.336zM86.22 302.233v17.632h30.54zM86.22 302.233l30.54 17.632zM86.22 302.233zM55.68 355.13h30.541v-17.633zM86.22 337.497zM86.22 337.497L55.68 355.13zM55.68 355.129z"></path>
                <path class="s-ht10 adu2" d="M86.22 355.13v17.631l30.54-17.632zM147.3 125.91l30.54 17.633v-35.264l-11.85 6.841zM177.84 143.543zM177.84 108.278zM177.84 108.279L147.3 90.646v17.633zM238.92 108.279l-30.54-17.633v17.633zM208.38 125.91V108.28h-30.54l4.19 2.419zM177.84 73.014L147.3 90.646h30.54zM147.3 161.175l-4.166-2.405-26.373-15.227v17.632h30.54zM116.76 178.807L86.22 196.44h30.54zM116.76 178.808l-30.54 17.631z"></path>
                <path class="ad1 s-ht10 adu1" d="M80.631 369.534l-24.95-14.405v17.632h30.54zM55.68 355.13zM55.68 355.129zM55.68 355.13h.001zM55.68 355.13v-.001z"></path>
                <path class="ad2 s-ht10 adu4" d="M55.68 355.13l24.951 14.404-24.95-14.405zM55.68 355.13zM147.3 372.762l-23.188 13.387-7.352 4.244 30.54 17.633v-35.264zM238.92 460.922h-30.54v17.632l30.54-17.632zM208.38 443.29l-30.54 17.632h30.54zM177.84 425.658h30.54v-17.632zM208.38 408.026l-30.54 17.632 30.54-17.632zM177.84 425.658zM269.46 443.29zM238.92 460.922h30.54v-17.631z"></path>
                <path class="ad3 s-ht10 adu3" d="M269.46 443.29l-30.54 17.632 30.54-17.631zM269.46 460.922v17.632L300 460.922zM269.46 478.554zM300 460.922l30.54 17.632v-17.632zM238.92 460.923v17.632h30.54l-6.707-3.873zM238.92 460.922zM238.92 460.923zM238.92 460.922zM238.92 460.922zM238.92 460.922zM238.92 460.922l23.833 13.76-23.832-13.76zM300 496.187l25.14-14.515L300 496.186zM330.54 513.82v-.001zM330.54 478.555l-5.4 3.117L300 496.187l30.54 17.632v-35.264zM330.54 513.819L300 496.187zM330.54 513.819zM300 496.187zM274.269 511.043l-4.808 2.776H300v-17.632zM269.46 513.819l4.809-2.776zM269.46 513.819L300 496.187zM274.269 511.043L300 496.187zM274.269 511.043l25.73-14.856-30.539 17.632zM325.668 163.988l-17.239 9.953-8.429 4.866z"></path>
                <path class="ad4 s-ht10 adu4" d="M330.54 196.44v-35.265l-4.872 2.813L300 178.808z"></path>
                <path class="ad5 s-ht10 adu3" d="M308.429 173.94l17.239-9.952 4.872-2.813-4.84 2.795zM330.54 161.175l-4.872 2.813zM330.54 196.44L300 178.807zM330.54 161.175L300 143.543v17.632zM300 178.808l-27.334 15.781-3.206 1.85H300zM300 178.807zM300 178.808v-.001zM300 178.808l-30.54 17.631zM300 178.808l-27.334 15.781z"></path>
                <path class="s-ht10 adu2" d="M269.46 196.44l3.206-1.851L300 178.808l-30.54 17.632zM452.7 125.91v.001zM483.24 143.543L452.7 125.91v17.632h30.539z"></path>
                <path class="ad1 adu2 s-ht10" d="M483.24 143.543L452.7 125.91l30.54 17.632zM483.24 143.543zM483.24 143.543zM330.54 478.555h30.54v-17.632l-22.207 12.82zM338.873 473.743l22.207-12.82zM330.54 478.555L300 496.186l25.14-14.514 5.4-3.117zM325.14 481.672l5.4-3.117zM330.54 478.555zM330.54 478.555zM330.54 478.555zM147.3 125.911zM147.3 143.543V125.91l-30.54 17.632h.001zM147.3 125.911l-30.54 17.632zM238.92 143.543v-35.264l-30.54 17.632zM238.92 143.543zM238.92 143.543zM238.92 143.543v-35.265 35.265zM147.3 408.026v17.632h30.54l-30.54-17.632zM147.3 408.026zM86.22 372.761l3.781 2.183 26.76 15.45V372.76zM86.22 372.761l3.781 2.183zM86.22 408.026h30.54v-17.632zM116.76 390.394zM116.76 390.393z"></path>
                <path class="ad2 adu1 s-ht10" d="M116.76 390.394l-30.54 17.632 30.54-17.632zM238.92 425.658l-30.54 17.632 27.673 15.977 2.867 1.655zM236.053 459.267l2.867 1.655zM238.92 425.658v35.264-35.264zM238.92 460.922zM269.46 478.555l14.184 8.188-14.184-8.188zM269.46 478.555zM283.644 486.743l-14.184-8.188 2.867 1.655 11.336 6.544zM269.46 478.555l2.867 1.655-2.867-1.655zM269.46 478.555z"></path>
                <path class="ad3 adu4 s-ht10" d="M300 478.555h-30.54l14.184 8.188 9.005 5.2 7.351 4.243z"></path>
                <path class="ad4 adu3 s-ht10" d="M283.663 486.754L300 496.186l-7.35-4.243z"></path>
                <path class="ad5 adu2 s-ht10" d="M283.644 486.743l.019.011 8.986 5.188zM391.62 161.175l15.27-8.816 15.27-8.816h-30.54v17.632z"></path>
                <path class="s-ht10 adu4" d="M391.62 143.543h-30.54l30.54 17.632zM391.62 408.026l-30.54 17.632h30.54v-17.632zM391.62 425.658h30.54l-30.54-17.632zM391.62 408.026l30.54 17.632z"></path>
                <path class="ad1 adu2 s-ht11" d="M509.59 269.388L483.24 284.6l30.54 17.632v-35.264l-4.19 2.419zm4.19-2.42l-30.54-17.632v17.632h30.54zm-30.54 35.265v17.632l30.539-17.632h-30.54zm30.54-105.793v17.632h30.54v-17.633h-30.54zm-30.54 17.632l7.351 4.244 23.189 13.387v-17.631h-30.54zm30.54 88.16v17.633h30.54l-30.54-17.632zm0 17.633h-30.54v35.264l30.54-17.632v-17.632zm0-52.897l30.54 17.632v-17.632h-30.54zM452.7 90.646v17.633h30.54L452.7 90.645zm-18.69 24.474l18.69 10.79V108.28h-30.54l11.85 6.841zm-11.85-6.842l30.54-17.632-30.54-17.632v17.632h-30.54v17.633h30.54zm-49.23 6.842l18.69 10.79V108.28h-30.54l11.85 6.841zm49.23 28.423l-30.54-17.632v17.632h30.54zm61.08 0v17.632h30.54l-30.54-17.632zm-30.54 17.632l30.54 17.632v-17.632H452.7zm30.54 35.264v17.632l21.724-12.542 8.816-5.09h-30.54zm30.54-70.528v17.632h30.54l-30.54-17.632zm-183.24 17.632H300l30.54 17.632v-17.632zm0-17.632v17.632h30.54l-30.54-17.632zm189.947 31.392l-6.707 3.872 30.54 17.632v-35.264l-23.833 13.76zm23.833 233.09v-17.632h-30.54l4.84 2.795 25.7 14.837zm-91.62 35.265h30.54l-30.54-17.632v17.632zm-10.18 11.755l10.18 5.877v-17.632h-30.54l20.36 11.755zm40.72-82.284l-30.54 17.632 4.84 2.795 25.7 14.837v-17.632h30.54l5.952-3.436 24.587-14.196h-30.54v17.632L483.24 355.13zm-30.54 52.897l30.54 17.632 30.54-17.632H452.7zm-61.08 0l30.54 17.632v-17.632h-30.54zm30.54 0h30.54l-4.841-2.795-25.7-14.837v17.632zm-30.54 35.264v17.632h30.54l-20.36-11.755-10.18-5.877zm0 0v-17.632h-30.54l30.54 17.632zm-61.08 70.529zm0-352.644L300 143.543l30.54 17.632zM116.76 284.601l-26.51-15.306-4.03-2.326v35.264l30.54-17.632zm-30.54-17.632h30.54v-17.633l-30.54 17.632zm0 35.264l30.54 17.632v-17.632H86.22zm0-105.793H55.68v17.632h30.54V196.44zm19.157 24.203l11.383-6.571H86.22v17.631l19.157-11.06zm-19.157 81.59l-30.54 17.632h30.54v-17.633zm0 17.632v17.632l30.54 17.632v-35.264H86.22zm0 35.264H55.681l24.95 14.405 5.59 3.227V355.13zm0-88.16H55.68V284.6l30.54-17.633zM147.3 90.645l-30.54 17.632h30.54V90.647zm0 35.264l18.69-10.79 11.85-6.841H147.3v17.632zm30.54-17.631h30.54V90.646l-30.54 17.632zm61.08 0h-30.54v17.632l30.54-17.632zm-30.54-17.633H147.3l30.54 17.632 30.54-17.632zm0 70.529l6.358 3.67 24.182 13.962v-35.264l-30.54 17.632zm-91.62-17.632l26.374 15.227 4.166 2.405v-17.632h-30.54l30.54-17.632-24.182-13.962-6.357-3.67v35.264l-30.54 17.632h30.54v-17.632zm30.54 17.632h-30.54v17.632l30.54-17.632zm-30.54 52.896V196.44H86.22l9.39 5.42 21.15 12.212zm-30.54-88.16l-30.54 17.632h30.54V125.91zm183.24 35.264L300 143.543h-30.54v17.632zm0-35.264l-30.54 17.632h30.54V125.91zM86.22 161.175l-6.25-3.608-24.29-14.024v35.264l30.54-17.632zM55.68 390.393l25.7-14.837 4.84-2.795H55.68v17.632zm30.54 17.633l30.54 17.632 30.54-17.632H86.22zm122.16 0l-2.69-1.553-27.85-16.079-7.351 4.244-23.188 13.388 30.54 17.632 30.539-17.632zm27.673 51.241L208.38 443.29v17.632h30.54l-2.867-1.655zm5.734-31.954l-2.867-1.655v35.264l30.54-17.632-27.673-15.977zm-2.867 33.61zm0-.001zm23.833 13.76l6.707 3.872v-17.632h-30.54l23.833 13.76zm67.787-31.391l-13.448 7.763-17.091 9.868h30.539v-17.631zm-122.16 35.263v-17.632h-30.54l30.54 17.632h30.54v-17.632l-30.54 17.632zm30.54 17.632l18.69-10.79 11.85-6.841h-30.54v17.631zm30.54 17.633L300 531.451l30.54-17.632h-61.08zm0-352.644H300v-17.632l-30.54 17.632zm61.08 0H300v17.632l25.7-14.837 4.84-2.795zm0 35.265L300 178.808v-.001 17.633h30.54zm152.7-88.161l-2.867 1.655-27.672 15.977 30.538 17.632v-35.265zM361.08 496.186v-17.631h-30.54l30.54 17.631zm-30.54-17.632l8.333-4.81 22.207-12.822h-30.54v17.632L300 460.922l-30.54 17.632v35.265L300 496.187l-27.673-15.977-2.866-1.655H300v17.631l30.54-17.631zm-152.7-335.011h30.54V125.91l-30.54 17.633zm-61.08 282.115h30.54v-17.632l-30.54 17.632zm30.54 17.632l30.54-17.632H147.3v17.632zm-30.54-52.897l7.352-4.244 23.188-13.387-30.54-17.633-30.54 17.632h30.54v17.632zm122.16 35.265l-30.54-17.632v35.264l30.54-17.632zM452.7 161.175v-17.632h-30.54l15.27 8.816 15.27 8.816zm-91.62 264.483l-4.19 2.42-26.35 15.212 30.54 17.632v17.632h30.54v-17.632h-30.54v-35.264z"></path>
                <path class="ad2 adu3 s-ht10" d="M147.3 161.175l15.27-8.816 15.27-8.816H147.3zM193.11 152.359l15.27 8.816v-17.632h-30.54zM177.84 143.543zM177.84 143.543z"></path>
                <path class="ad3 adu1 s-ht15" d="M513.78 302.233l30.54 17.632v-17.633h-30.54zm0-105.794l5.881-3.395 24.658-14.237-30.54-17.632v35.264zm0-35.264v-17.632h-30.54l30.54 17.632zm-458.1 158.69l30.54-17.632H55.68v17.632zm183.24-141.058l30.54 17.632v-35.264l-11.85 6.841-18.69 10.791zm30.54-17.632zm-30.54-17.632v17.632h30.54l-30.54-17.632zm-152.7 17.632l30.54-17.632H86.22v17.632zm366.48 70.528l26.619-15.367 3.92-2.264H452.7v17.631zM330.54 196.44zm30.54-17.632l-18.69-10.79-11.85-6.842v35.264l30.54-17.632zm-30.54-17.632h30.54v-17.632l-30.54 17.632zm0 105.793v-17.632 17.632zm-91.62 158.69l30.54-17.632h-30.54v17.632zm30.54-158.69L300 249.336h-30.54v17.632z"></path>
                <path class="ad4 adu1 s-ht12" d="M483.24 284.6v-17.632H452.7l30.54 17.632zm-30.54-17.632l-30.54-17.632v17.632h30.54zm-40.72 11.755l10.18 5.877v-17.632h-30.54l20.36 11.755zm10.18 41.142l15.27-8.816 15.27-8.816h-30.54v17.632zm0-105.793l4.84 2.795 25.7 14.837v-17.632h-30.54zm61.08 35.264H452.7v17.632l28.457-16.43 2.083-1.202zm-61.08 70.529l-30.54-17.632v17.632h30.54zm-61.08 0l11.85 6.841 18.69 10.79v-17.631h-30.54zm30.54 52.896h30.54V355.13h-30.54v17.632zm0-105.793v-17.632h-30.54l30.54 17.632zm30.54-17.632l-4.84-2.795-25.7-14.837v17.632h30.54zm-61.08-35.264h30.54V196.44l-30.54 17.632zm91.62 141.057v17.633l30.54-17.632H452.7zm-25.699-2.795l-4.84 2.795H452.7v-17.632l-25.699 14.837zm-65.92-67.733v17.632h30.539l-20.36-11.755-10.18-5.877zm-30.54-17.633h30.54v-17.632l-7.217 4.166-23.323 13.466zm61.079-105.793l-30.54-17.632v17.632h30.54zm-49.23 6.841l18.69 10.79v-17.631h-30.54l11.85 6.841zm49.23 28.423h-30.54v17.632l30.54-17.631zm91.62-17.632l-30.54-17.632v35.264l30.54-17.632zm-61.08 35.265l30.54-17.632v17.632h30.54l-30.54-17.633h-30.54v17.633zm0-35.264l-25.7 14.837-4.84 2.794h30.54v-17.631zm-91.62 123.425l-7.745 4.471-17.467 10.085-5.328 3.076h61.08v-17.632h-30.54zm0 141.057l-24.183 13.962-6.356 3.67 17.092-9.868 13.447-7.764zM300 460.922zm30.54-52.896v17.632h30.54v-17.632h-30.54zm56.24-2.795l-25.7-14.837v17.632h30.54l-4.84-2.795zM273.65 269.387L300 284.601l-7.123-4.113-19.227-11.1zm56.89 32.846zm0-70.529v17.632h30.54l-11.85-6.842-18.69-10.79zm-152.7 17.632l-30.54 17.632h30.54v-17.632zm10.18 29.387l20.36-11.755h-30.54V284.6l10.18-5.877zm-25.45 32.326l15.27 8.816v-17.632H147.3l15.27 8.816zm-15.27-114.61l30.54 17.633v-17.633H147.3l-30.54 17.633h30.54V196.44zm25.7 20.428l4.84-2.795H147.3v17.631l25.7-14.836zm-25.7 32.469h30.54l-30.54-17.632v17.632zm-30.54 0l30.54 17.632v-17.632h-30.54zm91.62 52.897l-30.54 17.632h30.54v-17.632zm18.69 24.473l11.85-6.84v-.001h-30.54v17.632l18.69-10.79zm-18.69 28.423h-30.54v17.632h30.54V355.13zm0-88.16l30.54-17.633h-30.54v17.632zm-25.699-20.428l-4.84 2.795h30.54v-17.632l-25.7 14.837zm25.7-50.101v17.632h30.539l-30.54-17.632zm-91.62 158.69L147.3 372.76V355.13h-30.54zm30.54-17.633v17.632h30.54l-4.842-2.795-25.699-14.837zm81.44-47.02l-20.36 11.756h30.54V284.6l-10.18 5.877zm40.719-23.509l-23.323-13.466-7.217-4.166v17.632h30.54zm-30.54-70.529h-30.54l30.54 17.632V196.44zm-91.62 0v-35.264l-30.54 17.632 30.54 17.632zm56.24-2.794l-25.7-14.838v17.632h30.54l-4.84-2.794zm-56.24-32.47l30.54 17.632v-17.632H147.3zM300 355.129l-30.54 17.632 12.908-7.452-12.908 7.453H300v-17.633zm0 35.264l13.295-7.675 17.245-9.956H300v17.631zm0 35.265v-17.632h-30.54l11.572 6.68.22.127L300 425.659zm-30.54-123.425h-30.54v17.632h30.54v-17.632zm0 35.264l8.717-5.033 9.973-5.758 11.85-6.841h-30.54v17.632zm61.08 17.632H300l30.54 17.633-12.908-7.453 12.908 7.452V355.13zm-61.08 70.53v17.63l18.69-10.79-18.69 10.79v.001l16.722 9.654L300 460.923v-35.264H269.46zm0-17.633l-30.54 17.632h30.54v-17.632zm-30.54-17.632l-25.7 14.837-4.84 2.794h30.54v-17.631zm91.62-193.954l-21.159 12.215-9.38 5.417H300h30.54V196.44zM300 249.336l30.54 17.632v-17.632H300zm0 17.632v-17.632l-30.54 17.632H300zm18.69 6.842l11.85-6.842H300V284.6l18.69-10.79zm-49.23 28.423l7.745 4.471 9.33 5.386L300 319.865v-17.632h-30.54zm-30.54-52.897h30.54v-17.632l-18.69 10.79-11.85 6.842z"></path>
                <path class="ad5 adu2 s-ht13" d="M483.24 249.336zm30.54-17.633l26.759-15.448-26.759 15.449 30.54 17.632v-35.264h-30.54v17.631zm-23.189-13.387l-7.351-4.244v35.264h30.54v-17.633l-23.189-13.387zm23.188 48.652h30.54v-17.632h-30.54v17.632zm30.54 88.161zm-30.54-17.632l26.51-15.305-26.509 15.305 30.54 17.632v-35.264h-30.54v17.632zm-30.539 17.632h30.54v-17.632l-30.54 17.632zm0-88.16V284.6l26.35-15.213 4.19-2.418v35.263h30.54v-17.631l-26.35 15.212 26.35-15.213-30.54-17.632h-30.54zm-61.08-158.69h30.54V90.646l-30.54 17.633zm58.213 1.655l2.867-1.655H452.7v17.632l27.673-15.977zM452.7 143.543V125.91l-30.54 17.633h30.54zm-61.08-17.632l30.54 17.632v-35.264h-30.54v17.632l25.346-14.634-25.345 14.634zm30.54-52.897l-30.54 17.632h30.54V73.014zm91.62 123.425v-35.264h-30.54v17.632l26.51-15.305-26.51 15.305 30.54 17.632zm0 0zm-30.54-52.896h30.54V125.91l-25.346 14.633 25.346-14.634-30.54-17.632v35.265zm37.247 13.76l23.833-13.76h-30.54v17.632l6.707-3.872zm-189.947 3.872l30.54-17.632h-30.54v17.632zm0-35.264L300 143.543h30.54V125.91zm189.121 67.133l-5.881 3.395h30.54v-17.631l-24.659 14.236zm24.659 197.35l-25.7-14.838-4.84-2.795-3.921 2.264-26.619 15.369 30.54 17.632 30.54-17.633zm-122.16 35.264v35.265l30.54-17.633-10.18-5.877-20.36-11.755zm30.54 0v17.632l30.54-17.632H452.7zm0-17.632h30.54v-17.633l-30.54 17.633v-35.264l-30.54 17.632 25.699 14.837 4.84 2.795zm0 0h-30.54v17.632l30.54-17.632zm-87.43 50.477l26.35-15.213-30.54-17.632v35.264l4.19-2.419zm26.35 20.051l30.54-17.632h-30.54v17.632zm0-35.264l30.54-17.632h-30.54v17.632zm-61.08 17.632v-17.631l-13.447 7.763 13.447-7.763v17.631zm0 17.632zm0 0v35.265l30.54-17.633-30.54-17.631zM325.7 163.97L300 178.807l8.429-4.866 17.27-9.971zM59.6 216.336l26.62 15.367v-17.631H55.68v35.264l30.539-17.632L59.6 216.336zm57.16-2.264l-11.383 6.571-19.158 11.06v17.633h30.54v-35.264zm-61.08 35.264v17.632h30.54v-17.632H55.68zm0 105.793zm0-35.264v35.264l30.539-17.632-26.35-15.213 26.35 15.213v-17.632H55.68zm30.54 17.632v17.632h30.539l-30.54-17.632zm0-70.528l4.03 2.326 26.51 15.305 30.539-17.632H86.22L55.68 284.6l26.51 15.306L55.68 284.6v17.632h30.54v-35.264zM147.3 125.91v-17.632h-30.54l6.357 3.67 24.182 13.962zm61.079 0l-26.35-15.213-4.19-2.42v35.265l30.54-17.632zm-45.81 26.448l-15.27 8.816h61.08l-15.27-8.816-15.27-8.816-15.27 8.816zm15.27-44.08zm0-35.265v17.632h30.54l-30.54-17.632zm61.08 105.793l18.69-10.79 11.85-6.842h-30.54v17.632zM86.22 196.44l30.54-17.633-26.35-15.213 26.35 15.213v-17.632H86.22l-30.54 17.632 24.87 14.358-24.87-14.358v17.632h30.54zm-30.54-52.897l24.29 14.024 6.25 3.608v-17.632H55.68zm61.08-35.264v-.001L86.22 125.91l26.35 15.213-26.35-15.212v17.632h30.54v-35.264zm122.16 35.264l30.54-17.632-30.54-17.633v35.265zm30.54 17.632v-17.632h-30.54l30.54 17.632zM300 143.543l-30.54-17.632v17.632H300zM86.22 161.175zm30.54 229.219L90 374.944l-3.78-2.183-4.842 2.795-25.699 14.837 30.54 17.633 30.54-17.632zm91.62 35.264h-30.54L147.3 443.29l30.54 17.633v-.001l30.54-17.632v-17.632zm61.08 17.632v17.632H300l-13.818-7.977-16.721-9.655zm-30.54 52.896l30.54 17.633v-35.264l-11.85 6.84-18.69 10.791zm-30.54-17.631l30.54 17.631v-17.631h-30.54zM300 496.186v17.633h30.54L300 496.187zM269.46 196.44L300 178.808V161.174h-30.54v35.264zm91.62-52.896h30.54V125.91l-18.69-10.79-11.85-6.841v-.001l-30.54 17.633 30.54 17.632zm0 352.643l30.54-17.631h-30.54v17.631zM177.84 143.543L147.3 125.91v17.633h30.54zm30.54 17.632l30.54-17.632-30.54-17.633v35.265zm-91.62 264.483l30.54 17.632v-17.632h-30.54zm30.54-52.896v35.263l-30.54-17.632v17.633h30.54l23.189-13.388 7.351-4.244-30.54-17.632zm264.68-94.039l-20.36-11.755v35.265l30.54-17.633-10.18-5.877zm40.72-11.754h-30.54V284.6l26.35-15.213 4.19-2.418zm-61.08 35.264l30.54 17.632v-17.632h-30.54zM452.7 196.44l-30.54 17.632h30.54V196.44zm-91.62 123.425v35.264l30.54-17.632-18.69-10.79-11.85-6.842zm0 0h30.54v-17.632l-30.54 17.632zm55.886 2.999l5.194-2.999h-30.54v17.632l25.346-14.633zm5.194-73.528l30.54 17.632v-17.632h-30.54v-35.264l-30.54 17.632 25.7 14.837 4.84 2.795zm0 0h-30.54v17.633l30.54-17.633zM365 247.072l-3.92 2.264V214.07h-.001l-30.54 17.633 18.69 10.79 11.85 6.842h-30.54v17.632l30.54 17.632v-17.632h-30.54l23.324-13.466 7.216-4.166h30.54v-17.632l-26.619 15.368zm118.239 72.793l-30.54-17.632-15.27 8.816-15.27 8.816h30.54v17.632l26.619 15.368-26.619-15.368v17.632h30.54v-35.264zm-152.7-17.633h30.54v-17.631l-26.35 15.212-4.19 2.42zm152.7-158.689H452.7v17.632l30.54-17.632zm-91.62 17.632h-30.54v17.632l25.346-14.633 5.194-2.999zm61.08 35.264v-35.264h-30.54v17.632l26.619 15.368-26.62-15.368v17.632H452.7zm-30.54-52.896l-15.27 8.816-15.27 8.816h30.54v-17.632zM300 390.393l13.295-7.675L300 390.393zm4.19-68.109l26.35 15.213-3.107-1.794-23.243-13.419zm26.35 15.213l26.35-15.213 4.19-2.419h-30.54v17.632zm0 35.264l30.54-17.632h-30.54v17.632zm26.35 55.316l4.19-2.419h-30.54v17.632l26.35-15.213zm-87.43 15.213l18.69-10.79-18.69 10.79zm122.16-35.264V372.76l-30.54 17.633 25.7 14.837 4.84 2.795zm-30.54 17.632l30.54-17.632h-30.54v17.632zm-26.619-19.896l-3.92 2.263h-.001 30.54v-17.631l-26.619 15.368zm26.62-33H330.54l30.54 17.631v-17.632zM300 214.071l9.38-5.417 21.159-12.215L300 214.07zm30.539 35.264v-17.632 17.632zm-122.16 52.897v-35.264l-20.36 11.754-10.18 5.877 30.54 17.633zm-61.08-35.264l4.19 2.418 26.35 15.213v-17.632H147.3zm30.54 35.264v17.632l30.54-17.632h-30.54zm61.08 17.632l-11.85 6.841-18.69 10.79 30.54 17.633v-35.264zm-30.54 0h30.54l4.19 2.419 26.35 15.213v-17.632h-30.54v-17.633h-30.54v17.633zm-30.54 0l5.194 2.999 25.346 14.633v-17.632h-30.54zm4.841-73.324l25.7-14.837-30.54-17.632-30.54-17.632v17.632h30.54v35.264H147.3v17.632l30.54-17.632 4.84-2.795zm-4.84 2.795l30.54 17.632v-17.632h-30.54zm61.079 0l-3.92-2.264-26.62-15.368v17.632h30.54zm-30.54-17.632l30.54-17.632h-30.54v17.632zM147.3 355.129v-17.632l-26.619 15.368 26.619-15.368v-17.632h30.54l-15.27-8.816-15.27-8.816-30.54 17.632v35.264h30.54zm122.16-52.897l-4.19-2.419-26.35-15.212v17.632h30.54zM147.3 161.176v35.264h30.54v-17.631l-26.619 15.368 26.619-15.369-30.54-17.632zM300 372.762h-30.54v35.264L300 390.394l-24.659-14.237L300 390.393v-17.631zm0-17.633v-35.264l-11.85 6.841-9.973 5.759-8.717 5.032L300 355.13zm0 0zm-30.54 17.632V355.13h-30.54l30.54 17.632zm-27.673 54.552l27.673 15.977v-17.632h-30.54l2.867 1.655zM300 460.923v-.001l6.357-3.67 24.182-13.962L300 425.658h30.54v-17.632l-11.722 6.767-.254.147-2.37 1.369L300 425.658v35.265zm-86.78-55.692l25.7-14.837-30.54-17.633v35.265l4.84-2.795zm-4.84 2.795l30.54 17.632v-17.632h-30.54zm57.16-2.264l-26.62-15.368v17.632h30.54l-3.92-2.264zm-26.62-15.369l30.54-17.631h-30.54v17.632zM300 249.336l3.183-1.838 1.508-.87 5.27-3.043 20.578-11.88-25.345-14.634 20.655 11.925 4.69 2.708h.001v-17.632H300v35.264zm0-35.265V196.44h-30.54l18.969 10.951 11.571 6.68zm18.69 59.739L300 284.6l30.54 17.633v-35.265l-11.85 6.842zm11.85 28.423zm-61.08-35.265l4.19 2.42 19.227 11.1L300 284.6v-17.632h-30.54zm-30.54-17.632l7.217 4.166 23.323 13.466h-30.54v17.633l30.54-17.633v-17.632h-30.54zm61.08 0l-4.19-2.42-26.349-15.212 24.437 14.11-24.438-14.11v17.632H300zm-30.54-17.632l4.978-2.874L300 214.072H300h-30.54v17.632z"></path>
                <path class="s-ht14 adu4" d="M116.76 249.336h30.54v-17.632l-26.619-15.368 26.62 15.368v-17.632h-30.54v52.897H147.3l-30.54-17.633zM483.24 284.6l-30.54-17.632h30.54v-17.632l-2.083 1.203-28.457 16.43-4.19 2.418-26.35 15.214-30.54 17.631h61.08l30.54 17.632V284.6zm-61.08-35.264l-30.54 17.632h30.54v-17.632zm30.54-17.633L427 216.868l-4.84-2.795v35.264h61.08v-35.264l-3.921 2.264-26.619 15.368zm-61.08-35.263v17.632h-30.54v35.264l3.921-2.264 26.618-15.368h.001l30.54-17.632V196.44h-30.54l25.897 14.951-25.897-14.951zm30.54 123.425l-5.194 2.999-25.345 14.633h-.001l-30.54 17.632v-35.264l-4.19 2.419-26.35 15.213-26.35-15.213 23.243 13.419 3.107 1.793v-17.631H300v35.264h61.08l-30.54 17.632h30.54v17.632l30.54-17.632v-17.632h30.54l4.841-2.795 25.699-14.837v-17.632h-30.54zm-30.54-52.897l-30.54-17.632v35.265l10.18 5.877 20.36 11.754v-35.264zm-30.54 35.264v17.633l30.54-17.633h-30.54zm0-88.16v-17.633h30.54l4.84-2.794 25.7-14.838v-17.632h-30.54l-5.194 2.999-25.345 14.633-30.54 17.632 30.54 17.632zm122.16-35.265l-30.54 17.632 30.54 17.632v-35.264zm-30.54-17.632l-30.54-17.632v17.632h30.54zM391.62 372.76v35.265l5.053-2.918 25.486-14.714h.001l30.54-17.632v-17.633h-30.54v17.633h-30.54zM269.46 231.704l24.438 14.11-24.437-14.11zm61.08 70.529zm0 0l4.19-2.42 26.35-15.213-30.54-17.632v35.265zm0-70.529l-4.69-2.708-20.656-11.925 25.345 14.633zm0 0l30.54-17.632-30.54-17.632v35.264zM147.3 302.233h61.08L177.84 284.6l-26.35-15.212-4.19-2.42-30.54 17.633v35.264l30.54-17.632zm30.54-88.161l-4.84 2.795-25.7 14.837 30.54 17.632v-35.264zm0 35.264v17.632h30.54l-30.54-17.632zm-61.08-35.264zm122.16 35.264l11.85-6.842 18.69-10.79v-17.632H300l-25.561 14.758-4.978 2.874 26.35 15.213 4.189 2.419v-35.264l9.381-5.417-9.38 5.416 30.539-17.631H300v17.631l-11.571-6.68-18.969-10.951-30.54 17.632-30.54 17.632L235 247.072l3.92 2.264zM147.3 372.762l30.54 17.632 27.85 16.079 2.69 1.553V372.76h-30.54V355.13H147.3v17.633zm61.08-105.794v35.264l20.36-11.754 10.18-5.877v-35.265l-30.54 17.632zm61.08-70.529l-30.54-17.632-24.182-13.961-6.358-3.67v-.001h-30.54v17.632l25.7 14.838 4.84 2.794h30.54v17.632l30.54-17.632zm-122.16 0l-30.54-17.632v35.264l30.54-17.632zm61.08 0h-30.54v17.633l30.54 17.632V196.44l-25.897 14.952 25.897-14.952zm0 211.587zm122.16-35.264L300 355.129v17.633h30.54l-17.245 9.956L300 390.393l-24.659-14.236L300 390.394l-30.539 17.632v17.632H300l-18.748-10.825-.22-.127-11.571-6.68H300v17.632l18.324-10.58.425-.244 11.79-6.808h.001l3.921-2.264 26.619-15.368-30.54-17.632zm-53.335-66.058l-7.744-4.471v17.632H300l-13.466-7.775-9.33-5.386zM300 355.129l-30.54-17.632-26.35-15.213-4.19-2.419v35.264l-30.54-17.632-25.346-14.633-5.194-2.999H147.3v17.633l25.7 14.837 4.84 2.794h30.54v17.632l30.54 17.633V372.76h30.54L300 355.13zm-30.54 17.632l-30.54-17.632h30.54v17.632zM300 425.658l30.54 17.632v-17.632H300zm-30.54-52.896l-30.54 17.631 26.619 15.369 3.92 2.263h.001v-35.264zm0 35.264zm0-105.793zm61.08-35.265L300 249.336h30.54v-17.632l-20.58 11.88-5.27 3.044-.776.448-.817.472-3.097 1.788v17.632h30.54zm-7.745 39.736l7.745-4.471L300 284.6l-26.35-15.214-4.19-2.418-30.54 17.631 26.35 15.213 4.19 2.42H300v17.632l5.328-3.076 17.467-10.085z"></path>
              </svg>