<svg xmlns="http://www.w3.org/2000/svg" viewBox="0 0 600 600" class="lg-icon">
                <path class="s-a18 ad21 adu1" d="M284.698 452.419h-30.603l30.603 17.669zM284.698 452.419h30.604l-30.604-17.67z"></path>
                <path class="s-a22 ad2 adu2" d="M315.302 434.75h-30.604l30.604-17.67z"></path>
                <path class="s-a22 ad3 adu3" d="M345.905 417.08h-30.603l30.603 17.67z"></path>
                <path class="s-a18 ad4 adu4" d="M345.905 452.419h-30.603l30.603 17.669zM315.302 399.412h-30.604l30.604 17.669z"></path>
                <path class="s-a113 ad1 adu1" d="M315.302 364.074h30.603l-30.603 17.669z"></path>
                <path class="s-a18 ad5 adu2" d="M315.302 116.707h30.603L315.303 99.04zM315.302 116.707h-30.604l30.604 17.67z"></path>
                <path class="s-a22 ad4 adu3" d="M284.698 134.377h30.604l-30.604 17.669zM254.095 152.046h30.603l-30.603-17.67z"></path>
                <path class="s-a18 ad2 adu4" d="M254.095 116.707h30.603L254.095 99.04zM284.698 169.715h30.604l-30.604-17.67zM315.302 222.722h30.603l-30.603-17.67zM483.622 160.88l-15.302-26.503v35.338zM483.622 196.218l15.302 26.504v-35.338zM422.415 196.218l-15.302-26.503 30.604 17.669zM422.415 196.218l15.302 26.504-30.604-17.67z"></path>
                <path class="s-a22 ad3 adu1" d="M422.415 231.556l-15.302-26.503v35.338zM422.415 266.894l-15.302-26.503 30.603 17.669z"></path>
                <path class="s-a18 ad1 adu2" d="M453.018 249.225l-15.301-26.503 30.603 17.669zM391.811 249.225l-15.302-26.503 30.604 17.669zM116.378 160.879l15.302-26.504v35.339zM116.378 196.217l-15.302 26.503v-35.338zM177.585 196.217l15.302-26.503-30.604 17.669zM177.585 196.217l-15.302 26.504 30.604-17.67z"></path>
                <path class="s-a22 ad5 adu3" d="M177.585 231.555l15.302-26.503v35.338z"></path>
                <path class="s-a22 ad4 adu4" d="M177.585 266.893l15.302-26.503-30.603 17.669z"></path>
                <path class="s-a18 adu1" d="M146.982 249.224l15.301-26.503-30.603 17.668z"></path>
                <path class="s-a18 ad2 adu2" d="M208.189 249.224l15.302-26.503-30.604 17.669z"></path>
                <path class="s-a18 adu3" d="M483.622 425.915L468.32 452.42V417.08z"></path>
                <path class="s-a18 ad1 adu4" d="M483.622 390.577l15.302-26.503v35.338zM422.414 390.577l-15.301 26.504 30.603-17.67zM422.414 390.577l15.302-26.503-30.603 17.669z"></path>
                <path class="s-a22 adu1" d="M422.414 355.24l-15.301 26.503v-35.338z"></path>
                <path class="s-a22 ad4 adu2" d="M422.414 319.901l-15.301 26.504 30.603-17.67z"></path>
                <path class="s-a18 ad3 adu3" d="M453.018 337.57l-15.302 26.504 30.604-17.67z"></path>
                <path class="s-a18 ad5" d="M391.81 337.57l-15.301 26.504 30.604-17.67z"></path>
                <path class="s-a18 ad2 adu1" d="M116.378 425.915l15.302 26.504V417.08zM116.378 390.577l-15.302-26.503v35.338zM177.585 390.577l15.302 26.503-30.603-17.668zM177.585 390.577l-15.301-26.503 30.603 17.668z"></path>
                <path class="s-a22 adu2" d="M177.586 355.239l15.301 26.504v-35.339zM177.586 319.901l15.301 26.503-30.603-17.668z"></path>
                <path class="s-a18 adu3" d="M146.982 337.57l15.302 26.504-30.604-17.67z"></path>
                <path class="s-a18 ad1 adu4" d="M208.19 337.57l15.301 26.504-30.604-17.67z"></path>
                <path class="s-a19 adu1" d="M284.698 523.095l30.604-17.669h-30.604v17.669zm30.604-35.338v17.669h30.603l-30.603-17.67zm-30.604 0v17.669l30.604-17.67h-30.604zm0-35.338v-17.67l-30.604 17.67h30.604zm0-35.338v-17.67l-30.604 17.67h30.604zm0 17.669l-30.604-17.67v17.67h30.604zm30.604 0h-30.604l30.604 17.669v-17.67zm0-17.67v17.67h30.603l-30.603-17.67zm30.603-17.668l-30.603-17.67v17.67h30.603zm-61.207 0l30.604-17.67h-30.604v17.67zm61.207 123.683l-30.603-17.669v17.669h30.603zM284.698 63.7h-30.603l30.603 17.67V63.7zm30.604 0l-30.604 17.67h30.604V63.7zm0 53.007v17.67l30.604-17.67h-30.604zm0 53.008l30.604-17.67h-30.604v17.67zm30.603-35.338h-30.603l30.604 17.668v-17.668zm-61.207 0h30.604l-30.604-17.67v17.67zm0 17.669v-17.67h-30.603l30.603 17.67zm-30.603 17.669l30.603 17.669v-17.67h-30.603zm61.207 17.669v-17.67l-30.604 17.67h30.604zm0 17.669l-30.604 17.669h30.604v-17.67zm168.32-8.835l-15.302 8.835 30.604 17.669-15.302-26.504zm-15.302-26.503l-15.302 8.834 15.302 26.504v-35.338zm-61.207 0v35.338l15.302-8.835-15.302-26.503zm-15.302 44.172l-15.302-26.503v35.338l15.302-8.835zm-15.302-26.503l30.604 17.669-15.302-26.504-15.302 8.835zm30.604 17.669l15.302 26.503 15.302-8.834-30.604-17.67zm30.604 53.007l-15.302-26.504-15.302 8.835 30.604 17.669zm-45.906-8.835l-15.302 8.835 30.604 17.669-15.302-26.504zm-15.302 8.835v-35.338l-15.302 8.834 15.302 26.504zm-275.433-35.34l30.604-17.668-15.302-8.835-15.302 26.503zm30.604-17.668l15.302-26.504-15.302-8.835v35.339zm45.905-8.835l15.302 8.835v-35.338l-15.302 26.503zm45.906 26.504v-35.338l-15.302 26.503 15.302 8.835zm-15.302-44.173l-15.302 26.504 30.604-17.67-15.302-8.834zm-45.906 44.173l15.302 8.834 15.302-26.503-30.604 17.669zm30.604 17.669l-15.302-8.835-15.302 26.504 30.604-17.67zm0 35.338l30.604-17.67-15.302-8.834-15.302 26.504zm45.906-44.173l-15.302-8.834v35.338l15.302-26.504zm244.829 159.022l15.302-26.503-30.604 17.669 15.302 8.834zm-15.302 26.504v-35.338l-15.302 26.503 15.302 8.835zm-45.905-26.504l-15.302-8.834v35.338l15.302-26.504zm-45.906-26.503v35.338l15.302-26.504-15.302-8.834zm15.302 44.172l15.302-26.503-30.604 17.669 15.302 8.834zm45.905-44.172l-15.302-8.835-15.302 26.504 30.604-17.67zm-30.603-17.67l15.301 8.835 15.302-26.503-30.603 17.669zm0-35.337l-30.604 17.669 15.302 8.834 15.302-26.503zm-45.906 44.172l15.302 8.835v-35.338l-15.302 26.503zm-244.829 35.338l15.302-8.834-30.604-17.67 15.302 26.504zm15.302 26.504l15.302-8.835-15.302-26.503v35.338zm61.207 0v-35.338l-15.302 8.834 15.302 26.503zm30.604-17.67v-35.338l-15.302 8.835 15.302 26.503zm-15.302 8.835l15.302-8.835-30.604-17.668 15.302 26.503zm-45.905-44.172l30.604 17.668-15.302-26.503-15.302 8.835zm0-35.339l15.302 26.504 15.301-8.835-30.603-17.668zm45.905 8.835l15.302-8.835-30.604-17.668 15.302 26.503zm15.302 26.503l15.302-8.834-15.302-26.503v35.337z"></path>
                <path class="s-a20 ad4 adu2" d="M315.302 505.426v-17.67l-30.604 17.67h30.604zm0-17.67l30.603-17.668h-30.603v17.669zm-30.604 0h30.604l-30.604-17.668v17.669zm-30.603-17.668v17.669l30.603-17.67h-30.603zm0 17.669l30.603 17.669v-17.67h-30.603zm30.603-35.338v17.669l30.604-17.67h-30.604zm61.207-35.338v-17.67l-30.603 17.67h30.603zm-30.603-17.67v-17.668l-30.604 17.669h30.604zm30.603 0v-17.668h-30.603l30.603 17.669zm-61.207-17.668h30.604l-30.604-17.67v17.67zm-30.603 0l30.603 17.669v-17.67h-30.603zm61.207 141.352v-17.669l-30.604 17.669h30.604zm-61.208-17.67l30.604 17.67v-17.67h-30.603zM284.699 63.7v17.67l30.604-17.67h-30.604zm0 17.67l-30.603 17.668h30.603V81.37zm30.604 0h-30.604l30.604 17.668V81.37zm30.603 17.668V81.37l-30.603 17.668h30.603zm0-17.668L315.303 63.7v17.67h30.603zm-30.603 35.337V99.04l-30.604 17.669h30.604zm-61.207 35.339v17.669l30.603-17.67h-30.603zm30.603 17.669v17.669l30.604-17.67h-30.604zm0 35.338h-30.603l30.603 17.669v-17.67zm0-17.67l30.604 17.67v-17.67h-30.604zm30.604 17.67h30.604v-17.67l-30.604 17.67zm30.603-17.67l-30.603-17.668v17.669h30.603zm137.717 8.835l-15.302-26.503v35.338l15.302-8.835zm-15.302 44.173v-35.338l-15.302 8.834 15.302 26.504zm-15.302-61.842l-15.301 8.835 30.603 17.669-15.302-26.504zm-30.603-17.669l15.302 26.504v-35.338l-15.302 8.834zm45.905 8.835l-30.604-17.67 15.302 26.504 15.302-8.834zm-30.603 53.007v-35.338l-15.302 8.834 15.302 26.504zm-30.604 17.669v35.338l15.302-8.835-15.302-26.503zm-30.604 17.669l15.302-8.835-15.302-26.503v35.338zm-30.603-17.67l30.603 17.67-15.302-26.504-15.301 8.835zm0-35.337l15.301 26.503 15.302-8.834-30.603-17.67zm-214.226-35.34l-15.302 26.504 15.302 8.834v-35.337zm15.302 44.173l-15.302-8.834v35.338l15.302-26.504zm-15.302-8.834l30.603-17.67-15.301-8.834-15.302 26.504zm45.905-44.173l-15.302-8.834v35.338l15.302-26.504zm-15.302-8.834l-30.603 17.669 15.302 8.834 15.301-26.503zm15.302 44.172l-15.302-8.835v35.339l15.302-26.504zm15.302 79.51V240.39l-15.302 26.503 15.302 8.835zm30.604-53.006l-15.302 26.503 15.302 8.835V222.72zm30.603 53.007l-15.301-8.835-15.302 26.504 30.603-17.67zm0-35.338l-15.301-8.835-15.302 26.504 30.603-17.67zm0-35.338l-30.603 17.669 15.302 8.834 15.302-26.503zM468.32 417.08l15.302-26.504-15.302-8.834v35.338zm-15.302-44.173l15.302 8.835v-35.338l-15.302 26.503zm15.302 8.835l-30.604 17.669 15.302 8.834 15.302-26.503zm-45.905 44.172l15.301 8.835v-35.338l-15.301 26.503zm15.301 8.835l30.604-17.67-15.302-8.834-15.302 26.504zm-15.301-44.173l15.301 8.835v-35.338l-15.301 26.503zm-15.303-44.172l15.302-26.504-15.301-8.834v35.338zm-30.603 17.669l15.302-26.504-15.302-8.834v35.338zM361.207 319.9l15.302-26.503-30.604 17.668 15.302 8.835zm0-53.007l-15.302 8.835 30.604 17.669-15.302-26.504zm-15.302 79.51l15.302 8.835 15.302-26.503-30.604 17.669zm0 35.339l30.604-17.67-15.302-8.834-15.302 26.504zm-229.527 8.834l15.302 26.504v-35.338l-15.302 8.834zm15.302-44.172v35.338l15.302-8.835-15.302-26.503zm15.302 61.841l15.302-8.835-30.604-17.668 15.302 26.503zm30.603 17.67l-15.301-26.504v35.338l15.301-8.835zm-45.905-8.835l30.604 17.669-15.302-26.504-15.302 8.835zm30.604-53.007v35.337l15.302-8.834-15.302-26.503zm30.603-17.67v-35.337l-15.301 8.834 15.301 26.503zm15.302-8.834l15.302 26.503v-35.337l-15.302 8.834zm45.906-26.504l-30.604-17.669 15.302 26.504 15.302-8.835zm-45.906-8.834l15.302 26.503v-35.338l-15.302 8.835zm45.906 44.172l-30.604-17.668 15.302 26.503 15.302-8.835zm30.603 17.67h-30.604v17.668l-15.301-26.503-15.302 8.834 30.603 17.67 30.604-17.67z"></path>
                <path class="s-a17 ad2 adu3" d="M315.302 470.088v-17.67l-30.604 17.67h30.604zm30.603 17.669v-17.67l-30.603 17.67h30.603zm-91.81-17.67h30.603l-30.603-17.668v17.669zm30.603 17.67v-17.67l-30.604 17.67h30.604zm0-53.007v-17.67h-30.604l30.604 17.67zm0-17.67h30.604l-30.604-17.668v17.669zm61.207 35.339v-17.67l-30.603 17.67h30.603zm-30.603-35.338l30.603-17.67h-30.603v17.67zm-61.208-17.67v17.67l30.604-17.67h-30.603zm91.811 123.684v-17.669h-30.603l30.603 17.669zM284.698 99.038v17.67l30.604-17.67h-30.604zM254.095 81.37v17.668l30.603-17.669h-30.603zm91.81 17.668h-30.603l30.604 17.67v-17.67zM315.303 81.37v17.668l30.604-17.669h-30.604zm0 53.007v17.668h30.604l-30.604-17.668zm0 17.669h-30.604l30.604 17.669v-17.67zm-61.207-35.338v17.669l30.603-17.67h-30.603zm30.603 35.338l-30.603 17.669h30.603v-17.67zm-30.603 53.007h30.603v-17.67l-30.603 17.67zm30.603 17.669l30.604-17.67h-30.604v17.67zm-30.603-35.338h30.603l-30.603-17.67v17.67zm0 53.007l30.603-17.67h-30.603v17.67zm91.81-70.676v-17.67l-30.603 17.67h30.603zm-30.603 17.669v17.669l30.604-17.67h-30.604zm198.924 26.503l-15.302-26.503v35.338l15.302-8.835zm-15.302-26.503l-15.302-26.504-15.302 8.835 15.302 26.503 15.302-8.834zm-45.906 26.503l-15.301-26.503v35.338l15.301-8.835zm15.302-8.834v35.338l15.302-8.835-15.302-26.503zm-45.905-44.173l-15.302 8.835 30.604 17.669-15.302-26.504zm45.905-26.503l-15.302 8.834 15.302 26.504v-35.338zm-30.603 17.669v35.338l15.301-8.835-15.301-26.503zm-30.604 53.007l-30.604-17.67 15.302 26.504 15.302-8.834zm0 35.338l-15.302-26.504-15.302 8.835 30.604 17.669zm45.905 8.834l-15.301-26.503v35.338l15.301-8.835zm-45.905 26.504V240.39l-15.302 8.834 15.302 26.504zm-30.604-17.67l-15.302 8.835 15.302 26.504V258.06zm0-70.675l-15.302 8.834 15.302 26.504v-35.338zm-275.433-.001l-15.302 26.503 15.302 8.834v-35.338zm30.604-17.67l-15.302-8.834-15.302 26.503 15.302 8.835 15.302-26.504zm15.302 44.173l15.301 8.835v-35.339l-15.301 26.504zm-15.302-8.834l-15.302 26.503 15.302 8.835v-35.338zm45.905-44.173l-15.302 26.504 30.604-17.67-15.302-8.834zm-45.905-26.504v35.338l15.301-26.503-15.301-8.835zm15.302 44.173l15.301 8.835v-35.338l-15.301 26.503zm61.207 35.338l15.302-26.503-30.604 17.669 15.302 8.834zm-15.302 26.504l30.604-17.67-15.302-8.834-15.302 26.504zm-30.604 17.669V222.72l-15.301 26.503 15.301 8.835zm45.906-8.835l-15.302-8.834v35.338l15.302-26.504zm15.302 44.173l15.302-26.504-15.302-8.834v35.338zm30.603-17.67V240.39l-15.301 26.503 15.302 8.835zm-15.301-79.51l-15.302-8.834v35.338l15.302-26.504zm0 35.338l15.301 8.835v-35.338l-15.301 26.503zm260.13 167.857l15.302-26.504-15.301-8.834v35.338zM468.32 417.08l15.302 8.834 15.302-26.503-15.302-8.835-15.302 26.504zm-30.604-53.007v35.338l15.302-26.504-15.302-8.834zm30.604 17.669l15.302-26.504-15.302-8.834v35.338zm-45.905 44.172l15.301-26.503-30.603 17.669 15.302 8.834zm45.905 26.504V417.08l-15.302 26.503 15.302 8.835zm-15.302-44.173l-15.302-8.834v35.338l15.302-26.504zm-61.207-35.338l-15.302 26.504 30.603-17.67-15.301-8.834zm15.302-26.503l-30.604 17.669 15.302 8.834 15.302-26.503zm30.603-17.67v35.339l15.302-26.504-15.302-8.834zm-45.905 8.835l15.302 8.835v-35.338L391.81 337.57zm-15.302-44.172L361.207 319.9l15.302 8.835v-35.338zm-30.604 17.669v35.338l15.302-26.504-15.302-8.834zm15.302 79.51l15.302 8.835v-35.338l-15.302 26.503zm0-35.338l-15.302-8.834v35.338l15.302-26.504zm-15.301-79.51l15.301-8.835-15.301-26.503 15.301-8.835-15.301-26.503h-30.604l30.604 17.669h-30.604l30.604 17.669v35.338h-.001v35.338l15.302-26.504-15.301-8.834zm-244.83 123.683v-35.338l-15.301 8.834 15.301 26.504 15.302 26.503 15.302-8.835-15.302-26.503-15.302 8.834zm45.906-26.504l15.302 26.503v-35.337l-15.302 8.834zm-15.302-26.503l-15.302 8.834 15.302 26.504v-35.338zm45.905 79.51l15.302-8.835-30.603-17.668 15.301 26.503zM131.68 452.42l15.302-8.835-15.302-26.503v35.338zm30.604-17.67v-35.337l-15.302 8.834 15.302 26.504zm30.603-53.006l30.604 17.668-15.302-26.503-15.302 8.835zm0-35.339l15.302 26.504 15.302-8.835-30.604-17.669zm-45.905-8.834l15.302 26.504v-35.338l-15.302 8.834zm45.905-26.503v35.337l15.302-8.834-15.302-26.503zm30.604 17.668l15.302-8.834-15.302-26.504v35.339zm15.302-8.834l15.302 26.503v-35.338l-15.302 8.835zm-15.302 79.51l15.302-8.834-15.302-26.504v35.339zm61.207-17.668v-17.67l-30.603 17.67h30.603zm-30.603 0v-35.338l-15.302 8.834 15.302 26.504zm-15.302-97.18l15.302 26.503v-35.338l-15.302 8.835z"></path>
                <path class="s-a21 adu4" d="M345.905 487.757h-30.603l30.603 17.669v-17.67zm-30.603 0v-17.67h-30.604l30.604 17.67zm30.603-17.67l-30.603-17.668v17.669h30.603zm-91.81 17.67v17.669h30.603l-30.603-17.67zm61.207-70.676h-30.604v17.669l30.604-17.67zm-61.208 35.338l30.604-17.67h-30.603v17.67zm61.208-17.67v17.67l30.603-17.67h-30.603zm-30.604-70.675l30.604 17.668v-17.668h-30.604zm61.207 0l-30.603 17.668h30.603v-35.338l-30.603 17.67h30.603zm-91.81 17.668l-30.604-17.669 15.302 26.504 15.301-8.835zm30.603 17.67l-30.604-17.67v17.67h30.604zm-30.603-53.008v17.67h30.603l-30.603-17.67zm30.603 176.691l-30.604-17.669v17.669h30.604zM254.095 81.369h30.603L254.095 63.7v17.67zm0 17.67l30.603 17.669v-17.67h-30.603zm30.603-17.67v17.67h30.604l-30.604-17.67zM345.906 63.7h-30.604l30.604 17.67V63.7zm-61.208 88.346h30.604v-17.67l-30.604 17.67zm61.208-35.338l-30.604 17.669h30.604v-17.67zm-61.208 17.669v-17.67l-30.603 17.67h30.603zm30.604 70.676l-30.604-17.67v17.67h30.604zm-61.207-17.67v17.67l30.603-17.67h-30.603zm91.81-17.668h-30.603l30.604 17.669v-17.67zm-91.81 35.338v17.669h30.603l-30.603-17.67zm183.622-17.67l15.301 26.504 15.302-8.834-30.603-17.67zm15.301 26.504l-15.301 8.835 30.603 17.669-15.302-26.504zm45.906 8.835l-30.604-17.67 15.302 26.504 15.302-8.834zm-45.905-79.51l-15.302 8.834 30.603 17.669-15.301-26.504zm-45.906 97.179v-35.338l-15.302 8.834 15.302 26.504zm0-35.338v-35.338l-15.302 8.834 15.302 26.504zm30.604 17.669l-15.302 8.834 15.302 26.504v-35.338zm-76.51 44.172l15.302-8.834-30.603-17.67 15.301 26.504zm45.906 8.835l-30.604-17.67v35.339l15.302-8.835 15.302-8.834zm-42.904 10.567l-3.002-1.733-15.302-8.834 10.201 17.668-10.2 17.67 15.301-8.835 15.302-8.834v35.337l30.603-17.669-15.301-8.834-15.302-8.834-12.3-7.102zm12.3-63.574l-15.302-26.504-15.302 8.835 30.604 17.669zm-214.226-35.34l-30.603 17.67 15.302 8.834 15.301-26.504zm0 35.339l-15.301-8.835-15.302 26.504 30.603-17.67zm-30.603-17.67l-30.604 17.67 15.302 8.834 15.302-26.504zm15.301-61.84l-15.301 26.502 30.603-17.668-15.302-8.835zm61.208 70.675l-15.302-8.834v35.338l15.302-26.504zm-15.302-44.172v35.338l15.302-26.504-15.302-8.834zm-15.302 61.841l-15.302-8.834v35.338l15.302-26.504zm76.51 8.835l-30.604 17.669 15.302 8.834 15.302-26.503zm-30.604 17.669l-30.604 17.669 30.604 17.668V258.06zm15.302-61.842l-15.302 26.504 30.603-17.67-15.301-8.834zm198.923 203.195l30.604-17.67-15.302-8.834-15.302 26.504zm0-35.338l15.302 8.834 15.302-26.503-30.604 17.669zm30.604 17.669l30.604-17.67-15.302-8.834-15.302 26.504zm-15.302 61.841l15.302-26.503-30.604 17.669 15.302 8.834zm-45.905-61.841v-35.338l-15.302 26.503 15.302 8.835zm0 35.338v-35.338l-15.302 26.503 15.302 8.835zm15.301-61.842l15.302 8.835v-35.338l-15.302 26.503zm-76.509-8.834l30.604-17.67-15.302-8.834-15.302 26.504zm30.604 17.669l-30.604 17.668 15.302 8.835 15.302-26.503zM162.284 399.41l-15.302-26.503-15.302 8.835 30.604 17.668zm-15.302-26.503l15.302-8.834-30.604-17.67 15.302 26.504zm-45.906-8.834l30.604 17.668-15.302-26.503-15.302 8.835zm45.906 79.51l15.302-8.834-30.604-17.67 15.302 26.504zm45.905-97.18v35.339l15.302-8.835-15.302-26.504zm15.302 61.842l-15.302-26.503v35.337l15.302-8.834zm-45.905-44.172l15.302-8.835-15.302-26.503v35.338zm76.509-44.173l-15.302 8.834 30.604 17.67-15.302-26.504zm-45.906-8.834l30.604 17.668-15.302-26.503-15.302 8.835zm30.604-17.67l30.604 17.67-15.302-26.504-15.302 8.834z"></path>
                <path class="s-a113 ad5 adu1" d="M315.302 275.728h-30.604v17.67z"></path>
                <path class="s-a25 ad3 adu2" d="M284.698 222.722h30.604v17.669z"></path>
                <path class="s-a114 adu3" d="M284.698 293.397v-17.669h-30.603z"></path>
                <path class="s-a114 ad4 adu4" d="M315.302 275.728l-30.604-17.668v17.668z"></path>
                <path class="s-a113 ad2 adu1" d="M284.698 275.728V258.06l-30.603 17.668z"></path>
                <path class="s-a114 adu2" d="M315.302 240.39h-30.604v17.67z"></path>
                <path class="s-a113 ad3 adu3" d="M284.698 258.06v-17.67h-30.603z"></path>
                <path class="s-a113 ad1 adu4" d="M315.302 240.39l-30.604-17.668v17.669z"></path>
                <path class="s-a114 adu3" d="M284.698 240.39v-17.668l-30.603 17.669z"></path>
                <path class="s-a113 adu1" d="M345.905 275.728h-30.603v17.67z"></path>
                <path class="s-a114 ad2 adu2" d="M345.905 275.728l-30.603-17.668v17.668zM345.905 240.39h-30.603v17.67z"></path>
                <path class="s-a113 ad4 adu3" d="M345.905 240.39l-30.603-17.668v17.669z"></path>
                <path class="s-a16 ad3 adu4" d="M315.302 258.06z"></path>
                <path class="s-a114 adu1" d="M254.095 275.728l30.603-17.668h-30.603z"></path>
                <path class="s-a25 adu2" d="M254.095 258.06h30.603l-30.603-17.67z"></path>
                <path class="s-a114 ad2 adu3" d="M254.095 311.066l30.603-17.669h-30.603z"></path>
                <path class="s-a25 ad5 adu4" d="M254.095 293.397h30.603l-30.603-17.669zM315.302 258.059V240.39l-30.604 17.669h30.604z"></path>
                <path class="s-a113 ad1 adu1" d="M315.302 275.728V258.06h-30.603zM315.303 258.06h30.602v-17.67l-30.603 17.669z"></path>
                <path class="s-a25 ad4 adu2" d="M345.905 275.728V258.06h-30.602z"></path>
                <path class="s-a113 ad3 adu3" d="M315.303 293.397h30.602v-17.669l-30.603 17.668z"></path>
                <path class="s-a25 ad5 adu4" d="M345.905 311.066v-17.669h-30.602zM315.302 258.06v-.001z"></path>
                <path class="s-a114 ad3 adu1" d="M315.302 293.397v-17.669l-30.604 17.669h30.604z"></path>
                <path class="s-a113 ad1 adu2" d="M315.302 346.403h-30.604v17.67z"></path>
                <path class="s-a25 adu3" d="M284.698 293.397h30.604v17.669z"></path>
                <path class="s-a114 ad2 adu4" d="M284.698 364.072v-17.669h-30.603z"></path>
                <path class="s-a114 ad4 adu1" d="M315.302 346.403l-30.604-17.668v17.668z"></path>
                <path class="s-a113 ad1 adu2" d="M284.698 346.403v-17.668l-30.603 17.668z"></path>
                <path class="s-a114 adu3" d="M315.302 311.065h-30.604v17.67z"></path>
                <path class="s-a113 adu4" d="M284.698 328.735v-17.67h-30.603z"></path>
                <path class="s-a113 ad2 adu1" d="M315.302 311.065l-30.604-17.668v17.668z"></path>
                <path class="s-a114 ad4 adu2" d="M284.698 311.065v-17.668l-30.603 17.668z"></path>
                <path class="s-a113 ad3 adu3" d="M345.905 346.403h-30.603v17.67z"></path>
                <path class="s-a114 ad1 adu4" d="M345.905 346.403l-30.603-17.668v17.668zM345.905 311.065h-30.603v17.67z"></path>
                <path class="s-a113 adu1" d="M345.905 311.065l-30.603-17.668v17.668z"></path>
                <path class="s-a16 ad5 adu2" d="M315.302 328.734z"></path>
                <path class="s-a114 ad1 adu3" d="M254.095 346.403l30.603-17.668h-30.603z"></path>
                <path class="s-a25 ad4" d="M254.095 328.735h30.603l-30.603-17.67zM315.302 328.734v-17.669l-30.604 17.669h30.604z"></path>
                <path class="s-a113 ad2 adu1" d="M315.302 346.403v-17.668h-30.603zM315.303 328.735h30.602v-17.67l-30.603 17.669z"></path>
                <path class="s-a25 adu2" d="M345.905 346.403v-17.668h-30.602zM315.302 328.734z"></path>
                <path class="s-a114 ad1 adu3" d="M315.302 364.072v-17.669l-30.604 17.669h30.604z"></path>
              </svg>